<svg width="132" height="132" viewBox="0 0 132 132" fill="none" xmlns="http://www.w3.org/2000/svg">
<path d="M129.994 66.1801L124.058 65.9279L124.015 66.947L128.864 67.153L128.755 69.7007L123.906 69.4947L123.863 70.5223L129.799 70.7745L129.994 66.1801Z" fill="white"/>
<path d="M128.148 77.145C129.311 76.2814 129.708 74.7153 129.088 73.4071C128.469 72.0988 127.013 71.4091 125.607 71.7569C124.2 72.1046 123.241 73.4011 123.309 74.8448C123.384 76.2982 124.466 77.4925 125.895 77.7062C126.695 77.8209 127.496 77.6182 128.148 77.145ZM124.738 75.8999C124.185 75.1423 124.241 74.0941 124.874 73.3949C125.515 72.6969 126.558 72.546 127.363 73.0394C128.17 73.5243 128.517 74.5187 128.2 75.4092C127.876 76.2901 126.974 76.8305 126.041 76.6881C125.52 76.6132 125.055 76.3233 124.738 75.8999Z" fill="white"/>
<path d="M123.501 82.4261C123.008 81.7127 122.981 80.7848 123.425 80.0385C123.87 79.2921 124.744 78.927 125.584 79.141C126.424 79.3551 127.025 80.0958 127.05 80.9618C127.093 81.8237 126.615 82.6318 125.841 83.0221L126.14 83.8089C127.397 83.4187 128.229 82.2184 128.136 80.8965C128.041 79.5829 127.11 78.4861 125.833 78.1608C124.557 77.8356 123.223 78.3553 122.502 79.4612C121.796 80.5796 121.944 82.0295 122.862 82.9737L123.501 82.4261Z" fill="white"/>
<path d="M124.98 90.8288L125.321 89.94C124.15 88.9809 122.988 88.0249 121.825 87.0688L126.347 87.2658L126.688 86.377C124.937 85.4134 123.177 84.4467 121.426 83.4831L121.057 84.4434L124.269 86.2041L120.445 86.0384L120.113 86.9034L123.066 89.3387L119.501 88.4984L119.129 89.4666C121.076 89.9223 123.025 90.3701 124.98 90.8288Z" fill="white"/>
<path d="M120.922 97.1539C122.306 96.7268 123.201 95.382 123.053 93.9422C122.904 92.5023 121.762 91.3675 120.319 91.2271C118.877 91.0867 117.542 91.9899 117.125 93.3738C116.711 94.7692 117.334 96.2557 118.611 96.933C119.326 97.3073 120.15 97.3831 120.922 97.1539ZM118.12 94.8444C117.852 93.946 118.253 92.9762 119.083 92.5276C119.92 92.0828 120.954 92.288 121.549 93.0213C122.148 93.747 122.144 94.8 121.549 95.5343C120.95 96.2572 119.92 96.4665 119.087 96.0216C118.621 95.7774 118.279 95.3491 118.12 94.8444Z" fill="white"/>
<path d="M118.392 102.707L120.772 99.1145L119.865 98.5138L118.959 99.8815L114.913 97.2014L114.345 98.0589L118.391 100.739L117.485 102.107L118.392 102.707Z" fill="white"/>
<path d="M115.957 105.752C116.115 105.649 116.263 105.517 116.379 105.37L117.459 104.003L112.799 100.318L112.166 101.119L113.946 102.526L113.503 103.086C113.389 103.245 113.293 103.407 113.224 103.591C112.96 104.336 113.19 105.168 113.81 105.659C114.437 106.154 115.3 106.186 115.964 105.758L115.957 105.752ZM114.224 103.97C114.258 103.9 114.304 103.828 114.352 103.768L114.8 103.201L115.98 104.134L115.532 104.701C115.484 104.761 115.425 104.822 115.364 104.872C115.085 105.074 114.709 105.069 114.443 104.858C114.176 104.648 114.085 104.283 114.224 103.97Z" fill="white"/>
<path d="M111.454 109.44L112.259 110.173L114.37 107.852L109.975 103.854L107.864 106.174L108.663 106.901L110.087 105.335L111.149 106.302L109.914 107.66L110.719 108.392L111.954 107.034L112.879 107.875L111.454 109.44Z" fill="white"/>
<path d="M108.603 113.716L111.737 110.758L110.99 109.967L109.797 111.093L106.466 107.563L105.718 108.268L109.049 111.799L107.856 112.924L108.603 113.716Z" fill="white"/>
<path d="M104.116 114.304C104.288 114.233 104.45 114.136 104.584 114.018L105.143 113.573L106.604 115.408L107.402 114.773L103.695 110.119L102.339 111.199C102.199 111.31 102.069 111.447 101.961 111.598C101.517 112.256 101.539 113.129 102.032 113.747C102.53 114.372 103.376 114.589 104.116 114.304ZM102.828 112.222C102.884 112.156 102.945 112.097 103.017 112.05L103.575 111.605L104.47 112.729L103.912 113.174C103.85 113.233 103.779 113.28 103.696 113.313C103.396 113.454 103.043 113.366 102.836 113.107C102.63 112.847 102.628 112.49 102.828 112.222Z" fill="white"/>
<path d="M99.0988 120.602C99.282 120.559 99.4663 120.486 99.6255 120.388L101.109 119.474L97.9937 114.415L97.1252 114.95L98.3152 116.882L97.7072 117.256C97.5452 117.366 97.3994 117.486 97.2713 117.635C96.7681 118.244 96.6994 119.105 97.1139 119.778C97.5328 120.458 98.3326 120.784 99.1032 120.609L99.0988 120.602ZM98.0812 118.334C98.1375 118.279 98.2054 118.227 98.2705 118.187L98.8857 117.808L99.6746 119.09L99.0594 119.468C98.9943 119.508 98.9175 119.546 98.8434 119.571C98.5121 119.666 98.1607 119.533 97.9824 119.243C97.8041 118.954 97.8435 118.58 98.0812 118.334Z" fill="white"/>
<path d="M93.9789 123.513L95.0073 123.004L94.2871 116.722L93.2892 117.216L93.4472 118.589L93.451 118.596L91.4323 119.596L91.4285 119.588L90.4326 118.63L89.4271 119.128L93.9789 123.513ZM93.8219 121.893L92.2617 120.389L93.5719 119.741L93.8219 121.893Z" fill="white"/>
<path d="M87.6983 123.595C87.8832 123.578 88.0669 123.535 88.2415 123.468L88.9002 123.215L89.3479 124.382L87.3719 125.14L87.7618 126.156L90.69 125.032L88.561 119.485L86.9501 120.104C86.7725 120.163 86.607 120.253 86.4617 120.373C85.8377 120.858 85.6034 121.695 85.8897 122.441C86.1729 123.179 86.9098 123.652 87.6983 123.595ZM87.1001 121.23C87.1703 121.175 87.2466 121.137 87.3369 121.111L87.9956 120.859L88.5103 122.2L87.8517 122.452C87.7674 122.494 87.685 122.516 87.5965 122.523C87.2675 122.567 86.9577 122.377 86.8389 122.067C86.7201 121.758 86.8259 121.417 87.097 121.222L87.1001 121.23Z" fill="white"/>
<path d="M80.8719 127.37C82.1309 128.086 83.7239 127.818 84.6717 126.724C85.6194 125.63 85.6642 124.02 84.7791 122.873C83.8941 121.725 82.3211 121.37 81.0271 122.014C79.7271 122.668 79.0701 124.14 79.4504 125.534C79.6675 126.312 80.1762 126.964 80.8719 127.37ZM80.6371 123.746C81.1079 122.936 82.0897 122.564 82.9846 122.862C83.8818 123.167 84.4403 124.062 84.3132 124.997C84.1943 125.93 83.424 126.649 82.4813 126.718C81.5445 126.776 80.6866 126.168 80.4411 125.257C80.2994 124.75 80.3774 124.207 80.6371 123.746Z" fill="white"/>
<path d="M75.1936 129.315L79.4387 128.573L79.2512 127.501L77.6352 127.784L76.7989 123.003L75.7858 123.18L76.6221 127.961L75.0061 128.243L75.1936 129.315Z" fill="white"/>
<path d="M71.2058 127.314C71.3876 127.352 71.5759 127.363 71.7618 127.341L72.4315 127.292L72.6033 129.632L73.6206 129.557L73.1849 123.623L71.4979 123.747C71.3114 123.761 71.1268 123.8 70.9525 123.864C70.2154 124.156 69.7494 124.889 69.8073 125.678C69.8658 126.475 70.4339 127.132 71.2058 127.314ZM71.3245 124.868C71.3996 124.845 71.4922 124.83 71.5776 124.832L72.2473 124.783L72.3525 126.215L71.6828 126.265C71.5986 126.279 71.5047 126.278 71.4266 126.258C71.0988 126.205 70.8488 125.934 70.8245 125.603C70.8002 125.273 71.0086 124.976 71.3245 124.868ZM68.4325 129.938L69.4583 129.863L69.0226 123.929L67.9968 124.004L68.4325 129.938Z" fill="white"/>
<path d="M63.4657 126.954C63.4544 127.164 63.3955 127.308 63.289 127.387C63.1826 127.467 63.0587 127.503 62.9172 127.495C62.7701 127.487 62.6479 127.438 62.5506 127.347C62.4477 127.257 62.4019 127.107 62.4132 126.897C62.4242 126.694 62.4859 126.549 62.5984 126.465C62.7051 126.38 62.832 126.341 62.9791 126.349C63.1206 126.357 63.2398 126.409 63.3368 126.505C63.4337 126.601 63.4767 126.751 63.4657 126.954Z" fill="white"/>
<path d="M57.6488 129.452L58.6502 123.596L57.6447 123.424L56.8267 128.208L54.3132 127.778L55.1312 122.994L54.1174 122.821L53.1161 128.677L57.6488 129.452Z" fill="white"/>
<path d="M49.6301 127.722C49.788 127.824 49.9688 127.906 50.1498 127.953L51.8367 128.39L53.3254 122.638L52.3379 122.382L51.7693 124.579L51.078 124.4C50.8867 124.36 50.6992 124.337 50.5033 124.348C49.7153 124.408 49.0469 124.955 48.8488 125.72C48.6486 126.493 48.9677 127.296 49.628 127.73L49.6301 127.722ZM50.5604 125.417C50.6387 125.419 50.7232 125.432 50.7972 125.452L51.4967 125.633L51.1197 127.089L50.4203 126.908C50.3462 126.889 50.266 126.859 50.1962 126.824C49.8987 126.65 49.7511 126.305 49.8363 125.975C49.9215 125.646 50.2182 125.416 50.5604 125.417Z" fill="white"/>
<path d="M42.4904 124.605C43.099 125.92 44.5514 126.627 45.9584 126.287C47.3654 125.947 48.3372 124.663 48.2833 123.215C48.2295 121.767 47.1556 120.564 45.7284 120.336C44.2903 120.113 42.9004 120.929 42.4001 122.285C42.1249 123.044 42.16 123.871 42.4904 124.605ZM44.4043 121.52C45.2587 121.133 46.2734 121.401 46.8291 122.163C47.3818 122.933 47.3169 123.986 46.6698 124.673C46.0308 125.364 44.9866 125.501 44.1793 125.009C43.3829 124.513 43.0376 123.52 43.367 122.635C43.5466 122.14 43.9253 121.744 44.4043 121.52Z" fill="white"/>
<path d="M39.5657 124.255C40.0307 123.328 40.5074 122.416 41.0379 121.549C41.275 121.135 41.562 120.754 41.8913 120.403C42.1496 120.141 42.524 120.01 42.886 120.061L43.1133 119.256C42.7919 119.12 42.4379 119.091 42.101 119.184C41.7753 119.272 41.4738 119.448 41.2302 119.68C40.8295 120.081 40.475 120.524 40.1821 121.015C39.7995 121.613 39.459 122.223 39.1337 122.84L37.9006 122.247L40.0091 117.866L39.09 117.423L36.5097 122.785L39.5657 124.255Z" fill="white"/>
<path d="M32.041 120.202L36.5639 118.12L34.4455 121.647L35.3198 122.172L38.3838 117.072L37.4584 116.516L32.9864 118.579L35.083 115.089L34.2014 114.559L31.1374 119.66L32.041 120.202Z" fill="white"/>
<path d="M29.0017 112.961C29.8493 112.776 30.7175 113.105 31.2386 113.8C31.7596 114.495 31.7648 115.442 31.2471 116.137C30.7295 116.833 29.8159 117.106 29.0055 116.8C28.1919 116.512 27.6264 115.763 27.5604 114.898L26.7188 114.875C26.6012 116.187 27.3945 117.413 28.6523 117.83C29.9033 118.242 31.2719 117.798 32.0585 116.741C32.8452 115.684 32.8722 114.253 32.1237 113.166C31.3581 112.087 29.9609 111.673 28.7387 112.162L29.0017 112.961Z" fill="white"/>
<path d="M21.6231 112.07L24.8109 114.97L25.543 114.165L24.3295 113.061L27.5956 109.471L26.8348 108.779L23.5687 112.369L22.3553 111.265L21.6231 112.07Z" fill="white"/>
<path d="M18.2374 108.512L19.0034 109.366L24.8635 106.989L24.1202 106.16L22.8398 106.68L22.8335 106.686L21.3299 105.009L21.3362 105.003L21.9925 103.787L21.2435 102.951L18.2374 108.512ZM19.7561 107.926L20.7871 106.02L21.7631 107.109L19.7561 107.926Z" fill="white"/>
<path d="M13.3484 102.333L15.8962 105.808L16.7737 105.165L15.8038 103.842L19.7183 100.973L19.1103 100.143L15.1958 103.012L14.2259 101.689L13.3484 102.333Z" fill="white"/>
<path d="M13.3266 97.8157C13.3761 97.9946 13.4518 98.1675 13.5521 98.3154L13.9243 98.9248L11.9222 100.148L12.4539 101.018L17.5317 97.9167L16.6278 96.4369C16.5348 96.2845 16.4156 96.1383 16.279 96.0125C15.6816 95.4909 14.8121 95.4045 14.1374 95.8165C13.4556 96.233 13.1354 97.0461 13.3266 97.8157ZM15.5519 96.7952C15.6107 96.8589 15.6623 96.927 15.6993 97.004L16.0715 97.6133L14.8456 98.3621L14.4734 97.7527C14.4218 97.6846 14.3848 97.6077 14.3623 97.5218C14.2592 97.2063 14.3906 96.8671 14.6735 96.6943C14.9564 96.5215 15.311 96.5639 15.5519 96.7952Z" fill="white"/>
<path d="M9.92235 90.4476C9.54252 90.3307 9.1345 90.3572 8.77497 90.5112C8.10164 90.8169 7.69899 91.5132 7.78172 92.2504C7.79783 92.4298 7.8449 92.5952 7.9187 92.7577L8.58995 94.2359L13.9998 91.7794L13.2864 90.2083C13.2091 90.038 13.1086 89.8783 12.9883 89.7368C12.4631 89.1352 11.6063 88.9548 10.8865 89.2816C10.4102 89.5072 10.052 89.9313 9.92235 90.4476ZM9.05624 92.6519L8.90513 92.3191C8.87701 92.2572 8.85664 92.1918 8.844 92.1228C8.80119 91.8435 8.94832 91.5713 9.1967 91.4399C9.45984 91.3204 9.77708 91.3817 9.97467 91.5907C10.0147 91.6379 10.0583 91.6928 10.0829 91.7469L10.343 92.3197L9.15113 92.8609L9.05624 92.6519ZM12.1636 90.4287C12.222 90.4956 12.2648 90.5695 12.2922 90.6504L12.5875 91.3005L11.2253 91.919C11.2183 91.9035 10.9652 91.3463 10.9617 91.3386L10.9301 91.2689C10.8837 91.1873 10.864 91.1029 10.8486 91.0072C10.8079 90.6709 10.9987 90.3509 11.3005 90.2138C11.6059 90.0845 11.9562 90.1775 12.1636 90.4287Z" fill="white"/>
<path d="M5.36586 86.3748L7.5694 85.5949L8.42023 87.9988L6.21669 88.7787L6.55702 89.7402L12.158 87.7578L11.8177 86.7962L9.44589 87.6357L8.59505 85.2319L10.9669 84.3924L10.6237 83.4228L5.02269 85.4053L5.36586 86.3748Z" fill="white"/>
<path d="M3.67406 80.3952L8.3467 82.1155L4.35621 83.116L4.60426 84.1054L10.3756 82.6584L10.1131 81.6113L5.48997 79.9136L9.43924 78.9235L9.18912 77.9259L3.41774 79.3729L3.67406 80.3952Z" fill="white"/>
<path d="M6.133 74.0882C5.86127 74.2703 5.6522 74.5197 5.52957 74.8239C5.36387 74.6529 5.15468 74.532 4.92716 74.4571C4.26549 74.255 3.53665 74.4858 3.11832 75.0363C2.91471 75.3193 2.79619 75.6487 2.78381 75.9952C2.76363 76.9803 3.47896 77.8282 4.45804 77.9699L4.62441 77.1419C4.31455 77.0374 4.06103 76.8031 3.94192 76.4953C3.82126 76.2308 3.84049 75.9262 3.99923 75.685C4.14256 75.4549 4.42523 75.3399 4.69606 75.4163C4.95714 75.4857 5.15621 75.703 5.19161 75.9728L5.2956 76.6104L6.36941 76.4352L6.25584 75.7389C6.20521 75.4285 6.34325 75.1132 6.61771 74.9479C6.8992 74.7728 7.25957 74.8173 7.49357 75.0375C7.6134 75.1386 7.69538 75.2716 7.73816 75.4282C7.78504 75.6101 7.80813 75.8044 7.80604 76.0028C7.77397 76.387 7.57292 76.7384 7.26609 76.9693L7.6856 77.6933C8.30848 77.3936 8.73812 76.8068 8.83409 76.128C8.88414 75.8011 8.87272 75.4671 8.78443 75.137C8.69066 74.7734 8.48219 74.4457 8.20214 74.2071C7.60574 73.7188 6.77165 73.674 6.133 74.0882Z" fill="white"/>
<path d="M5.13884 70.2323C4.92948 70.2436 4.77961 70.2006 4.68923 70.1034C4.59884 70.0061 4.54983 69.8867 4.54218 69.7453C4.53422 69.5982 4.56993 69.4714 4.6493 69.3649C4.72836 69.2528 4.87257 69.1911 5.08193 69.1798C5.28564 69.1688 5.43566 69.2146 5.53201 69.3172C5.62805 69.4142 5.68005 69.5362 5.688 69.6833C5.69565 69.8248 5.65696 69.9489 5.57194 70.0556C5.48691 70.1624 5.34255 70.2213 5.13884 70.2323Z" fill="white"/>
<path d="M2.02257 64.5934L7.95276 64.9599L8.01568 63.9419L3.17143 63.6424L3.32874 61.0973L8.173 61.3967L8.23645 60.3702L2.30627 60.0036L2.02257 64.5934Z" fill="white"/>
<path d="M4.06904 53.7204C2.88975 54.5616 2.46335 56.1197 3.05763 57.4396C3.6519 58.7595 5.09371 59.477 6.50676 59.1563C7.91982 58.8356 8.90336 57.5577 8.86342 56.113C8.81646 54.6584 7.75721 53.4436 6.33243 53.2026C5.53546 53.0726 4.72981 53.2598 4.06904 53.7204ZM7.45528 55.0307C7.99315 55.7988 7.91712 56.8457 7.27111 57.5326C6.6167 58.2182 5.57051 58.349 4.77502 57.8403C3.97817 57.34 3.6505 56.3392 3.98421 55.4549C4.32495 54.5804 5.23703 54.0574 6.16686 54.2176C6.68699 54.3025 7.14637 54.6013 7.45528 55.0307Z" fill="white"/>
<path d="M8.86719 48.3491C9.34446 49.0736 9.35011 50.0018 8.88871 50.7379C8.42732 51.4739 7.54555 51.819 6.71048 51.5859C5.87541 51.3528 5.2917 50.5986 5.28643 49.7323C5.26251 48.8696 5.75856 48.0726 6.54208 47.7L6.26054 46.9066C4.99474 47.2681 4.13557 48.4491 4.19849 49.7727C4.2637 51.0882 5.16953 52.2059 6.43852 52.5602C7.7075 52.9144 9.05309 52.4252 9.7984 51.336C10.5296 50.234 10.4145 48.781 9.51896 47.8162L8.86719 48.3491Z" fill="white"/>
<path d="M7.56334 39.9324L7.20234 40.8133C8.35105 41.7984 9.4919 42.7804 10.6327 43.7623L6.11611 43.4638L5.75511 44.3447C7.48455 45.3474 9.22186 46.3533 10.9513 47.356L11.3413 46.4044L8.16983 44.5719L11.9892 44.8235L12.3405 43.9662L9.443 41.4651L12.9884 42.3853L13.3816 41.4257C11.4459 40.9264 9.50693 40.4349 7.56334 39.9324Z" fill="white"/>
<path d="M11.7185 33.7598C10.3253 34.1561 9.40045 35.4807 9.51707 36.9235C9.63368 38.3663 10.7509 39.5262 12.1896 39.6985C13.6283 39.8709 14.9838 38.9975 15.4313 37.6231C15.8754 36.2373 15.2855 34.7373 14.0244 34.0319C13.3173 33.6419 12.4956 33.5477 11.7185 33.7598ZM14.4683 36.1309C14.717 37.035 14.2939 37.9956 13.4547 38.4258C12.6081 38.8519 11.5787 38.6238 11.0002 37.8775C10.4176 37.1387 10.445 36.086 11.0563 35.3651C11.6708 34.6557 12.7056 34.4693 13.5276 34.9325C13.9891 35.187 14.3214 35.6228 14.4683 36.1309Z" fill="white"/>
<path d="M14.2469 28.4065L11.8019 31.9553L12.6978 32.5725L13.6285 31.2217L17.6252 33.9754L18.2088 33.1284L14.2121 30.3747L15.1428 29.0238L14.2469 28.4065Z" fill="white"/>
<path d="M16.7056 25.4337C16.5464 25.5339 16.3961 25.6635 16.2775 25.808L15.172 27.155L19.7648 30.9243L20.4119 30.1358L18.6576 28.696L19.1105 28.1441C19.228 27.9876 19.3269 27.8269 19.3995 27.6446C19.677 26.9046 19.4617 26.0682 18.8507 25.5667C18.233 25.0598 17.3707 25.0118 16.6991 25.4283L16.7056 25.4337ZM18.4062 27.2472C18.3708 27.3171 18.3234 27.3882 18.2749 27.4473L17.8165 28.0058L16.6536 27.0513L17.1119 26.4928C17.1604 26.4337 17.2209 26.3734 17.2826 26.3251C17.5652 26.1281 17.9408 26.1394 18.2036 26.3551C18.4664 26.5708 18.5508 26.937 18.4062 27.2472Z" fill="white"/>
<path d="M21.2779 21.8134L20.4865 21.0667L18.3341 23.3481L22.6557 27.4255L24.8081 25.1441L24.0229 24.4033L22.5705 25.9428L21.5256 24.957L22.7856 23.6215L21.9942 22.8749L20.7343 24.2103L19.8254 23.3528L21.2779 21.8134Z" fill="white"/>
<path d="M24.1848 17.5994L20.997 20.4994L21.7291 21.3042L22.9426 20.2003L26.2087 23.7904L26.9695 23.0983L23.7034 19.5082L24.9169 18.4042L24.1848 17.5994Z" fill="white"/>
<path d="M28.6291 17.1188C28.4564 17.187 28.2925 17.2806 28.1561 17.396L27.5896 17.8306L26.1616 15.9693L25.3523 16.5902L28.9742 21.3109L30.3499 20.2554C30.4915 20.1467 30.6244 20.0127 30.7349 19.8635C31.1903 19.2142 31.1841 18.3404 30.7029 17.7133C30.2165 17.0794 29.3742 16.8472 28.6291 17.1188ZM29.8796 19.2235C29.8225 19.2887 29.7602 19.3472 29.6876 19.3922L29.1211 19.8268L28.2467 18.6871L28.8132 18.2525C28.8755 18.194 28.9481 18.149 29.031 18.1175C29.3339 17.9816 29.6851 18.0763 29.8869 18.3393C30.0887 18.6023 30.0841 18.9594 29.8796 19.2235Z" fill="white"/>
<path d="M33.9243 10.7922C33.7402 10.8311 33.5543 10.9006 33.3929 10.9951L31.8894 11.8758L34.8925 17.0025L35.7726 16.4869L34.6255 14.5287L35.2416 14.1678C35.406 14.0616 35.5545 13.9451 35.6857 13.7992C36.2023 13.2011 36.29 12.342 35.8905 11.6599C35.4866 10.9704 34.6943 10.6268 33.92 10.7849L33.9243 10.7922ZM34.8915 13.0824C34.8341 13.1357 34.765 13.186 34.699 13.2247L34.0756 13.5899L33.3152 12.2917L33.9386 11.9265C34.0046 11.8879 34.0822 11.8522 34.1568 11.8282C34.4901 11.7414 34.8385 11.8821 35.0104 12.1754C35.1822 12.4688 35.1346 12.8415 34.8915 13.0824Z" fill="white"/>
<path d="M39.0795 7.98513L38.04 8.47121L38.6201 14.7684L39.6288 14.2967L39.5014 12.9206L39.4978 12.9129L41.5382 11.9588L41.5418 11.9665L42.5162 12.9465L43.5325 12.4712L39.0795 7.98513ZM39.2004 9.60823L40.7267 11.1465L39.4024 11.7658L39.2004 9.60823Z" fill="white"/>
<path d="M45.4062 8.00305C45.2209 8.01523 45.0363 8.05428 44.8602 8.11733L44.196 8.35523L43.7747 7.17891L45.7673 6.46522L45.4004 5.44094L42.4476 6.49858L44.4511 12.0921L46.0755 11.5103C46.2544 11.4552 46.4219 11.3681 46.5698 11.2519C47.2047 10.7808 47.4578 9.94976 47.1883 9.19756C46.9218 8.45336 46.1957 7.96401 45.4062 8.00305ZM45.951 10.3811C45.8795 10.4338 45.8024 10.4705 45.7115 10.494L45.0473 10.7319L44.5629 9.37951L45.2271 9.14161C45.3123 9.10208 45.3951 9.08142 45.4838 9.07677C45.8136 9.03987 46.1192 9.23742 46.2309 9.54951C46.3427 9.86159 46.2292 10.2002 45.9538 10.3891L45.951 10.3811Z" fill="white"/>
<path d="M52.0187 4.43219C50.7735 3.69206 49.1757 3.93 48.2074 5.00593C47.2391 6.08186 47.1637 7.69055 48.0269 8.85441C48.89 10.0183 50.4559 10.4032 51.762 9.78423C53.0741 9.15489 53.7589 7.69578 53.4051 6.29474C53.2028 5.51299 52.7066 4.85119 52.0187 4.43219ZM52.1848 8.05927C51.6987 8.86114 50.7099 9.21361 49.8208 8.89936C48.9296 8.57687 48.3882 7.67217 48.533 6.73912C48.6696 5.8082 49.4534 5.10489 50.3972 5.05378C51.3349 5.01304 52.1812 5.6369 52.4094 6.55243C52.5414 7.06262 52.4531 7.6035 52.1848 8.05927Z" fill="white"/>
<path d="M58.0435 2.52604L53.7825 3.17084L53.9453 4.24659L55.5673 4.00114L56.2935 8.8L57.3104 8.64612L56.5842 3.84725L58.2063 3.6018L58.0435 2.52604Z" fill="white"/>
<path d="M61.5436 4.62185C61.3626 4.58056 61.1745 4.56519 60.9883 4.58378L60.3177 4.62004L60.1911 2.27746L59.1726 2.33253L59.4938 8.27385L61.1829 8.18252C61.3696 8.17242 61.5549 8.13687 61.7304 8.0763C62.473 7.7978 62.9531 7.07382 62.9104 6.28448C62.8673 5.48664 62.3119 4.81865 61.5436 4.62185ZM61.3778 7.06537C61.3024 7.08647 61.2095 7.10001 61.1241 7.09611L60.4536 7.13237L60.376 5.69796L61.0466 5.6617C61.131 5.64863 61.2248 5.65207 61.3026 5.6734C61.6292 5.73235 61.874 6.00853 61.8919 6.33955C61.9098 6.67057 61.6958 6.96305 61.3778 7.06537ZM64.367 2.05165L63.34 2.10719L63.6612 8.04851L64.6882 7.99297L64.367 2.05165Z" fill="white"/>
<path d="M69.5631 5.09388C69.5784 4.88478 69.6401 4.74157 69.748 4.66427C69.856 4.58697 69.9806 4.5535 70.1219 4.56388C70.2688 4.57467 70.3901 4.62618 70.4856 4.71842C70.5867 4.81108 70.6296 4.96196 70.6143 5.17106C70.5993 5.37452 70.5348 5.51751 70.4208 5.60005C70.3125 5.683 70.1848 5.71909 70.0379 5.7083C69.8966 5.69792 69.7784 5.64379 69.6833 5.5459C69.5882 5.44801 69.5481 5.29733 69.5631 5.09388Z" fill="white"/>
<path d="M75.4149 2.6892L74.3017 8.52548L75.3036 8.71659L76.2129 3.94904L78.7178 4.4268L77.8084 9.19435L78.8187 9.38705L79.9319 3.55077L75.4149 2.6892Z" fill="white"/>
<path d="M83.2332 4.51283C83.0773 4.40752 82.8981 4.32221 82.718 4.27193L81.0397 3.80342L79.4422 9.52613L80.4246 9.80038L81.0348 7.61446L81.7225 7.80643C81.9131 7.85081 82.1001 7.87653 82.2962 7.8695C83.0852 7.825 83.7638 7.29079 83.9764 6.5294C84.1912 5.75982 83.8874 4.95137 83.2355 4.50464L83.2332 4.51283ZM82.2593 6.80021C82.1811 6.79602 82.0969 6.78135 82.0233 6.76078L81.3274 6.56652L81.7319 5.11742L82.4278 5.31168C82.5015 5.33225 82.581 5.36329 82.6502 5.40023C82.9443 5.57942 83.0854 5.92767 82.9939 6.25515C82.9025 6.58263 82.6015 6.80747 82.2593 6.80021Z" fill="white"/>
<path d="M90.4681 7.79281C89.8843 6.46712 88.4454 5.73276 87.0323 6.04622C85.6191 6.35967 84.6234 7.62545 84.6501 9.0742C84.6767 10.5229 85.7279 11.7458 87.1506 12.0005C88.5843 12.2503 89.9892 11.4602 90.5149 10.1142C90.8042 9.36034 90.7847 8.53345 90.4681 7.79281ZM88.4966 10.8419C87.6352 11.2123 86.6256 10.925 86.0844 10.1527C85.5462 9.3726 85.6309 8.32166 86.2907 7.64624C86.9426 6.96778 87.9891 6.85048 88.7871 7.35705C89.5741 7.8685 89.9007 8.86789 89.5547 9.74569C89.3658 10.2377 88.9798 10.6267 88.4966 10.8419Z" fill="white"/>
<path d="M93.4047 8.19146C92.9226 9.10972 92.4291 10.0127 91.8825 10.8699C91.6378 11.2796 91.3438 11.655 91.0081 11.9997C90.7449 12.2573 90.3682 12.3814 90.0072 12.3232L89.765 13.1244C90.0838 13.2662 90.4372 13.3016 90.7758 13.2153C91.103 13.1328 91.4077 12.9628 91.6556 12.7356C92.0637 12.3417 92.4263 11.9058 92.7283 11.4203C93.1219 10.8286 93.4737 10.2254 93.8103 9.61457L95.0322 10.2308L92.8428 14.572L93.7536 15.0313L96.4329 9.71867L93.4047 8.19146Z" fill="white"/>
<path d="M100.84 12.3623L96.2798 14.361L98.4627 10.8739L97.5981 10.3327L94.441 15.376L95.356 15.9488L99.8651 13.968L97.7048 17.4191L98.5765 17.9648L101.734 12.9215L100.84 12.3623Z" fill="white"/>
<path d="M103.68 19.5894C102.829 19.7589 101.967 19.4148 101.458 18.7103C100.95 18.0058 100.962 17.059 101.493 16.3731C102.023 15.6871 102.941 15.4302 103.746 15.7513C104.554 16.0539 105.106 16.8134 105.156 17.6795L105.997 17.7173C106.139 16.4085 105.368 15.168 104.118 14.7282C102.875 14.2935 101.498 14.7121 100.692 15.7544C99.8865 16.7968 99.8334 18.2276 100.562 19.328C101.308 20.4202 102.697 20.8604 103.928 20.3938L103.68 19.5894Z" fill="white"/>
<path d="M111.274 20.8142L108.151 17.8455L107.401 18.6341L108.59 19.7642L105.247 23.2823L105.992 23.9909L109.336 20.4728L110.525 21.6029L111.274 20.8142Z" fill="white"/>
<path d="M114.481 24.3063L113.731 23.4381L107.828 25.7081L108.557 26.5506L109.846 26.0539L109.853 26.0483L111.325 27.7526L111.319 27.7581L110.641 28.9622L111.374 29.8111L114.481 24.3063ZM112.952 24.8639L111.887 26.7509L110.931 25.6447L112.952 24.8639Z" fill="white"/>
<path d="M119.22 30.5062L116.736 26.9845L115.847 27.6116L116.792 28.9522L112.826 31.7496L113.419 32.5901L117.385 29.7927L118.331 31.1333L119.22 30.5062Z" fill="white"/>
<path d="M119.175 35.0247C119.129 34.8449 119.057 34.6707 118.959 34.5209L118.598 33.9049L120.622 32.7191L120.107 31.839L114.973 34.8464L115.849 36.3426C115.94 36.4966 116.056 36.6451 116.19 36.7733C116.778 37.3058 117.646 37.4082 118.328 37.0086C119.017 36.6048 119.352 35.7978 119.175 35.0247ZM116.932 36.0041C116.874 35.9393 116.824 35.8703 116.788 35.7927L116.427 35.1766L117.667 34.4505L118.028 35.0666C118.078 35.1356 118.114 35.2133 118.134 35.2995C118.232 35.6169 118.094 35.9536 117.808 36.1212C117.522 36.2887 117.168 36.2398 116.932 36.0041Z" fill="white"/>
<path d="M122.574 42.7193C122.952 42.8447 123.36 42.8273 123.723 42.6814C124.403 42.3908 124.821 41.7037 124.755 40.9648C124.743 40.7851 124.699 40.6187 124.629 40.4546L123.991 38.9617L118.528 41.2967L119.206 42.8833C119.279 43.0553 119.376 43.2172 119.493 43.3613C120.005 43.9746 120.857 44.1741 121.584 43.8635C122.066 43.6485 122.433 43.2326 122.574 42.7193ZM123.49 40.5349L123.633 40.871C123.66 40.9336 123.679 40.9994 123.69 41.0686C123.726 41.3488 123.573 41.6176 123.322 41.7435C123.056 41.8571 122.741 41.7887 122.548 41.5753C122.509 41.5273 122.466 41.4714 122.443 41.4167L122.196 40.8383L123.399 40.3239L123.49 40.5349ZM120.333 42.688C120.276 42.6199 120.235 42.5451 120.21 42.4636L119.929 41.807L121.305 41.2191C121.311 41.2348 121.552 41.7975 121.555 41.8053L121.585 41.8757C121.63 41.9583 121.648 42.0432 121.661 42.1392C121.694 42.4762 121.496 42.7919 121.191 42.9222C120.883 43.0446 120.535 42.9438 120.333 42.688Z" fill="white"/>
<path d="M126.972 46.6558L124.754 47.3941L123.949 44.9747L126.166 44.2363L125.844 43.2686L120.207 45.1452L120.529 46.113L122.916 45.3183L123.722 47.7378L121.335 48.5325L121.659 49.5083L127.297 47.6317L126.972 46.6558Z" fill="white"/>
<path d="M128.581 52.7544L123.942 50.9456L127.951 50.0212L127.722 49.0273L121.924 50.3642L122.167 51.4161L126.757 53.2014L122.789 54.1162L123.02 55.1184L128.818 53.7815L128.581 52.7544Z" fill="white"/>
<path d="M126.007 59.0199C126.282 58.843 126.496 58.5976 126.624 58.2958C126.786 58.47 126.993 58.5949 127.219 58.6741C127.877 58.8889 128.61 58.6721 129.039 58.1297C129.248 57.8507 129.373 57.5236 129.392 57.1774C129.431 56.1929 128.732 55.3314 127.756 55.1709L127.573 55.9957C127.881 56.1061 128.13 56.3451 128.243 56.6552C128.359 56.922 128.334 57.2261 128.171 57.4643C128.023 57.6915 127.738 57.8011 127.469 57.7195C127.209 57.6452 127.014 57.4241 126.984 57.1536L126.892 56.5142L125.815 56.6687L125.915 57.3671C125.96 57.6784 125.816 57.991 125.538 58.1511C125.254 58.3207 124.894 58.2693 124.664 58.0446C124.547 57.9413 124.467 57.8067 124.427 57.6493C124.384 57.4666 124.365 57.2719 124.371 57.0735C124.41 56.69 124.618 56.3425 124.929 56.1175L124.523 55.3857C123.895 55.6734 123.454 56.2519 123.345 56.9287C123.289 57.2545 123.294 57.5887 123.376 57.9204C123.463 58.2858 123.665 58.6174 123.94 58.8613C124.527 59.361 125.36 59.4218 126.007 59.0199Z" fill="white"/>
<path d="M126.933 62.95C127.143 62.9427 127.292 62.9886 127.38 63.0875C127.469 63.1865 127.516 63.3068 127.521 63.4484C127.526 63.5956 127.487 63.7217 127.406 63.8266C127.325 63.9372 127.179 63.9961 126.97 64.0034C126.766 64.0104 126.617 63.9618 126.523 63.8573C126.428 63.7585 126.379 63.6355 126.374 63.4882C126.369 63.3467 126.41 63.2233 126.497 63.1182C126.584 63.0132 126.729 62.9571 126.933 62.95Z" fill="white"/>
</svg>
