<?xml version="1.0" standalone="no"?>
<!DOCTYPE svg PUBLIC "-//W3C//DTD SVG 20010904//EN"
 "http://www.w3.org/TR/2001/REC-SVG-20010904/DTD/svg10.dtd">
<svg version="1.0" xmlns="http://www.w3.org/2000/svg"
 width="976.000000pt" height="976.000000pt" viewBox="0 0 976.000000 976.000000"
 preserveAspectRatio="xMidYMid meet">
<metadata>
Created by potrace 1.14, written by Peter Selinger 2001-2017
</metadata>
<g transform="translate(0.000000,976.000000) scale(0.100000,-0.100000)"
fill="#000000" stroke="none">
<path d="M5686 7803 c-1 -1 -35 -3 -77 -4 -46 -1 -96 -10 -128 -21 -48 -18
-263 -231 -2724 -2692 -1470 -1469 -2679 -2683 -2688 -2696 -107 -165 7 -408
200 -426 70 -6 1002 -5 1036 2 79 15 113 43 438 368 l328 326 254 0 c291 0
276 5 274 -92 -1 -29 0 -57 1 -63 1 -5 1 -14 0 -20 -2 -12 -2 -128 1 -141 1
-5 0 -13 -1 -19 -6 -32 3 -127 17 -173 28 -92 119 -172 213 -187 46 -7 3982
-7 4035 0 58 8 119 40 159 85 28 32 193 346 361 690 20 41 116 234 124 250 4
8 12 24 18 35 5 11 33 65 60 120 106 210 235 468 343 685 28 58 56 112 61 120
4 8 84 167 176 354 l168 338 0 82 c0 70 -4 87 -27 127 -40 68 -103 119 -168
136 -37 9 -91 13 -172 13 -49 -1 -96 -1 -105 -1 -10 0 -40 0 -68 0 -27 -1 -61
0 -75 1 -14 1 -31 1 -37 1 -7 -1 -21 -1 -30 -1 -86 -1 -150 -2 -158 -1 -97 3
-167 3 -171 -2 -3 -3 -18 -1 -34 3 -16 4 -30 6 -33 4 -3 -3 -58 -5 -132 -3
-156 4 -247 -23 -310 -93 -19 -20 -87 -144 -152 -275 -65 -131 -121 -239 -125
-241 -5 -2 -8 -8 -8 -14 0 -8 -96 -207 -120 -248 -5 -8 -64 -125 -130 -260
-67 -135 -128 -250 -137 -257 -8 -6 -38 -12 -66 -12 -29 -1 -61 -2 -72 -2 -28
0 -203 1 -245 2 -19 0 -41 0 -47 -1 -19 -1 -37 -1 -188 -1 -77 0 -149 0 -160
0 -11 0 -63 0 -115 0 -52 0 -103 1 -112 0 -120 0 -121 5 -11 228 49 98 91 180
94 183 4 3 10 15 13 28 4 13 23 50 42 83 19 34 34 63 34 66 0 4 104 214 120
243 5 8 30 60 57 115 26 55 51 102 54 105 4 3 10 15 13 28 4 13 23 50 42 83
19 34 34 63 34 66 0 6 114 236 140 281 6 9 15 28 21 42 16 37 108 221 117 234
4 6 30 58 57 116 27 58 53 107 57 108 4 2 8 8 8 13 0 12 247 508 262 526 8 10
40 13 183 14 36 0 209 -1 245 -2 19 0 41 0 48 1 24 1 184 1 272 -1 19 0 41 0
48 1 24 1 184 1 272 -1 19 0 41 0 48 1 19 1 39 1 142 0 52 0 115 0 140 1 25 0
50 0 55 -1 10 -2 129 -1 143 1 4 1 12 0 17 -1 6 -1 28 -1 50 -1 57 2 51 2 156
0 53 -1 100 1 105 3 5 3 18 4 29 1 11 -2 61 -3 110 -3 100 1 113 1 237 0 47 0
90 0 95 1 4 1 13 0 18 -1 19 -4 137 0 145 5 5 3 11 1 14 -4 4 -6 18 -6 36 -1
18 5 32 5 36 -1 3 -5 11 -6 17 -2 7 4 20 9 29 10 40 6 110 47 143 84 26 29
232 413 240 449 3 11 167 335 175 345 4 5 9 13 9 18 1 6 114 235 155 312 9 17
16 38 16 47 0 9 4 19 8 22 14 8 14 103 0 149 -6 23 -11 45 -10 50 1 4 -3 7 -8
7 -6 0 -10 6 -10 14 0 8 -23 35 -51 60 -93 84 80 77 -2060 79 -1045 1 -1902 1
-1903 0z m108 -246 c47 -1 86 1 86 5 0 4 6 5 13 2 20 -7 307 -10 307 -2 0 3 8
4 18 2 30 -8 262 -9 262 -2 0 4 7 5 14 2 22 -9 146 -10 146 -2 0 4 7 5 15 2
21 -9 105 -10 105 -2 0 3 8 4 18 2 29 -8 222 -9 222 -2 0 3 8 4 18 2 30 -8
222 -9 222 -2 0 4 6 5 14 2 21 -8 186 -10 186 -2 0 4 7 5 14 2 22 -9 146 -10
146 -2 0 4 7 5 15 2 21 -9 105 -10 105 -2 0 3 8 4 18 2 29 -8 222 -9 222 -2 0
3 8 4 18 2 30 -8 222 -9 222 -2 0 4 6 5 14 2 21 -8 146 -10 146 -2 0 3 8 4 18
2 29 -8 222 -9 222 -2 0 3 8 4 18 2 30 -8 222 -9 222 -2 0 4 6 5 14 2 21 -8
146 -10 146 -2 0 3 8 4 18 2 32 -8 222 -9 222 -1 0 5 5 5 10 2 6 -4 60 -6 120
-6 127 0 139 -7 120 -65 -7 -20 -27 -63 -46 -96 -19 -33 -34 -62 -34 -65 0 -5
-106 -218 -120 -243 -5 -8 -82 -161 -171 -340 -88 -179 -166 -331 -172 -338
-5 -7 -29 -13 -51 -12 -23 0 -48 0 -56 -1 -17 0 -383 0 -415 0 -11 1 -40 0
-65 0 -25 0 -49 -1 -55 0 -9 0 -388 0 -425 0 -32 0 -396 0 -415 0 -11 1 -40 0
-65 0 -25 0 -52 -1 -60 0 -8 0 -125 0 -260 0 -135 0 -252 0 -260 0 -8 1 -35 0
-60 0 -25 0 -52 -1 -60 0 -71 3 -411 0 -433 -4 -52 -10 -116 -46 -152 -86 -19
-21 -61 -92 -94 -157 -85 -170 -132 -264 -191 -382 -28 -58 -55 -112 -60 -120
-5 -8 -30 -60 -57 -115 -26 -55 -51 -101 -55 -103 -5 -2 -8 -8 -8 -13 0 -11
-137 -288 -150 -304 -5 -5 -9 -13 -9 -18 0 -4 -18 -40 -38 -80 -21 -39 -42
-83 -48 -97 -11 -27 -100 -205 -115 -230 -5 -8 -29 -57 -54 -108 -25 -51 -49
-99 -53 -105 -4 -7 -8 -14 -8 -17 -2 -13 -151 -305 -157 -308 -5 -2 -8 -9 -8
-15 0 -7 -7 -25 -16 -42 -107 -203 -170 -337 -187 -395 -44 -151 83 -324 247
-336 89 -7 1053 -6 1106 1 102 13 175 74 235 197 20 40 41 78 47 85 6 7 8 13
5 13 -3 0 10 27 29 61 18 33 34 63 34 66 0 5 136 279 148 297 4 6 7 13 7 16 1
5 217 438 235 470 5 8 25 49 45 90 21 41 42 80 47 87 5 6 39 12 76 13 37 1 72
1 77 2 6 0 21 -1 35 -1 14 -1 33 -1 43 -1 9 1 71 1 137 1 66 0 126 0 133 0 6
0 21 0 32 -1 11 -1 45 -2 75 -1 30 0 63 1 73 1 9 0 24 0 32 0 21 1 251 1 273
0 9 0 32 0 50 0 49 1 72 -9 72 -31 0 -20 -350 -732 -362 -737 -5 -2 -8 -8 -8
-13 0 -8 -358 -731 -391 -789 -4 -8 -33 -67 -64 -130 -31 -63 -61 -122 -66
-130 -5 -8 -31 -60 -57 -115 -27 -55 -96 -194 -154 -310 -58 -115 -113 -227
-123 -248 -21 -44 -46 -61 -86 -55 -16 3 -29 1 -29 -3 0 -4 -8 -5 -17 -3 -31
8 -263 9 -263 2 0 -4 -6 -5 -14 -2 -21 8 -186 10 -186 2 0 -3 -8 -4 -17 -2
-31 8 -263 9 -263 2 0 -4 -6 -5 -14 -2 -21 8 -186 10 -186 2 0 -3 -8 -4 -17
-2 -31 8 -263 9 -263 2 0 -4 -6 -5 -14 -2 -21 8 -186 10 -186 2 0 -3 -8 -4
-17 -2 -30 8 -303 10 -303 2 0 -3 -8 -4 -17 -2 -31 8 -263 9 -263 2 0 -4 -6
-5 -14 -2 -21 8 -186 10 -186 2 0 -3 -8 -4 -17 -2 -31 8 -263 9 -263 2 0 -4
-6 -5 -14 -2 -21 8 -186 10 -186 2 0 -3 -8 -4 -17 -2 -31 8 -263 9 -263 2 0
-4 -6 -5 -14 -2 -21 8 -186 10 -186 2 0 -3 -8 -4 -17 -2 -31 8 -263 9 -263 2
0 -4 -6 -5 -14 -2 -23 9 -186 10 -186 1 0 -5 -5 -5 -10 -2 -6 4 -55 6 -110 6
-87 -1 -101 2 -109 18 -6 10 -10 108 -10 226 0 255 -9 294 -86 370 -79 80
-108 86 -430 85 -264 0 -317 -5 -377 -36 -16 -8 -174 -161 -353 -340 l-325
-325 -55 4 c-30 1 -55 -1 -55 -4 0 -4 -8 -5 -17 -3 -31 8 -263 9 -263 2 0 -4
-6 -5 -14 -2 -21 8 -186 10 -186 2 0 -3 -8 -4 -17 -2 -33 9 -263 9 -263 1 0
-5 -5 -5 -12 -1 -6 4 -27 6 -47 6 -53 -2 -71 6 -71 34 0 19 569 594 2651 2675
l2650 2651 55 -4 c30 -1 54 0 54 4 0 4 6 5 14 2 8 -3 53 -6 100 -7z"/>
</g>
</svg>
